<?xml version="1.0" encoding="UTF-8" standalone="no"?>
<!DOCTYPE svg PUBLIC "-//W3C//DTD SVG 1.1//EN"
 "http://www.w3.org/Graphics/SVG/1.1/DTD/svg11.dtd">
<!-- Generated by graphviz version 2.38.0 (20140413.2041)
 -->
<!-- Title: Callgraph Pages: 1 -->
<svg width="435pt" height="260pt"
 viewBox="0.00 0.00 435.33 260.00" xmlns="http://www.w3.org/2000/svg" xmlns:xlink="http://www.w3.org/1999/xlink">
<g id="graph0" class="graph" transform="scale(1 1) rotate(0) translate(4 256)">
<title>Callgraph</title>
<polygon fill="white" stroke="none" points="-4,4 -4,-256 431.326,-256 431.326,4 -4,4"/>
<!-- sort.c:random_sort -->
<g id="node1" class="node"><title>sort.c:random_sort</title>
<ellipse fill="blue" stroke="black" cx="194.739" cy="-234" rx="99.3824" ry="18"/>
<text text-anchor="middle" x="194.739" y="-230.3" font-family="Times,serif" font-size="14.00">sort.c:random_sort</text>
</g>
<!-- sort.c:random_swap_two -->
<g id="node3" class="node"><title>sort.c:random_swap_two</title>
<ellipse fill="none" stroke="black" cx="126.739" cy="-90" rx="126.978" ry="18"/>
<text text-anchor="middle" x="126.739" y="-86.3" font-family="Times,serif" font-size="14.00">sort.c:random_swap_two</text>
</g>
<!-- sort.c:random_sort&#45;&gt;sort.c:random_swap_two -->
<g id="edge1" class="edge"><title>sort.c:random_sort&#45;&gt;sort.c:random_swap_two</title>
<path fill="none" stroke="black" d="M162.809,-216.782C149.035,-207.946 134.359,-195.601 126.739,-180 117.385,-160.85 118.111,-136.5 120.77,-118.112"/>
<polygon fill="black" stroke="black" points="124.253,-118.507 122.497,-108.059 117.354,-117.321 124.253,-118.507"/>
</g>
<!-- sort.c:random_swap_random -->
<g id="node4" class="node"><title>sort.c:random_swap_random</title>
<ellipse fill="none" stroke="black" cx="281.739" cy="-162" rx="145.674" ry="18"/>
<text text-anchor="middle" x="281.739" y="-158.3" font-family="Times,serif" font-size="14.00">sort.c:random_swap_random</text>
</g>
<!-- sort.c:random_sort&#45;&gt;sort.c:random_swap_random -->
<g id="edge2" class="edge"><title>sort.c:random_sort&#45;&gt;sort.c:random_swap_random</title>
<path fill="none" stroke="black" d="M215.799,-216.055C226.831,-207.179 240.515,-196.169 252.553,-186.483"/>
<polygon fill="black" stroke="black" points="254.974,-189.027 260.571,-180.032 250.586,-183.574 254.974,-189.027"/>
</g>
<!-- sort.c:random_in_range -->
<g id="node2" class="node"><title>sort.c:random_in_range</title>
<ellipse fill="green" stroke="black" cx="203.739" cy="-18" rx="121.578" ry="18"/>
<text text-anchor="middle" x="203.739" y="-14.3" font-family="Times,serif" font-size="14.00">sort.c:random_in_range</text>
</g>
<!-- sort.c:random_swap_two&#45;&gt;sort.c:random_in_range -->
<g id="edge3" class="edge"><title>sort.c:random_swap_two&#45;&gt;sort.c:random_in_range</title>
<path fill="none" stroke="black" d="M145.378,-72.055C155.048,-63.2639 167.021,-52.3801 177.6,-42.7627"/>
<polygon fill="black" stroke="black" points="179.959,-45.3482 185.004,-36.0316 175.25,-40.1686 179.959,-45.3482"/>
</g>
<!-- sort.c:random_swap_random&#45;&gt;sort.c:random_in_range -->
<g id="edge4" class="edge"><title>sort.c:random_swap_random&#45;&gt;sort.c:random_in_range</title>
<path fill="none" stroke="black" d="M281.193,-143.811C279.915,-125.014 275.796,-94.5633 262.739,-72 256.154,-60.6218 246.274,-50.3587 236.473,-41.9615"/>
<polygon fill="black" stroke="black" points="238.663,-39.2307 228.694,-35.6415 234.249,-44.6637 238.663,-39.2307"/>
</g>
<!-- sort.c:random_swap_random&#45;&gt;sort.c:random_swap_two -->
<g id="edge5" class="edge"><title>sort.c:random_swap_random&#45;&gt;sort.c:random_swap_two</title>
<path fill="none" stroke="black" d="M245.006,-144.411C223.211,-134.568 195.403,-122.01 172.228,-111.543"/>
<polygon fill="black" stroke="black" points="173.495,-108.275 162.94,-107.349 170.613,-114.655 173.495,-108.275"/>
</g>
</g>
</svg>
