<?xml version="1.0" encoding="UTF-8" standalone="no"?>
<!DOCTYPE svg PUBLIC "-//W3C//DTD SVG 1.1//EN"
 "http://www.w3.org/Graphics/SVG/1.1/DTD/svg11.dtd">
<!-- Generated by graphviz version 2.38.0 (20140413.2041)
 -->
<!-- Title: Callgraph Pages: 1 -->
<svg width="246pt" height="188pt"
 viewBox="0.00 0.00 245.84 188.00" xmlns="http://www.w3.org/2000/svg" xmlns:xlink="http://www.w3.org/1999/xlink">
<g id="graph0" class="graph" transform="scale(1 1) rotate(0) translate(4 184)">
<title>Callgraph</title>
<polygon fill="white" stroke="none" points="-4,4 -4,-184 241.84,-184 241.84,4 -4,4"/>
<!-- c.c:main -->
<g id="node1" class="node"><title>c.c:main</title>
<ellipse fill="none" stroke="black" cx="140.693" cy="-162" rx="50.0912" ry="18"/>
<text text-anchor="middle" x="140.693" y="-158.3" font-family="Times,serif" font-size="14.00">c.c:main</text>
</g>
<!-- a.c:a_wrapper -->
<g id="node2" class="node"><title>a.c:a_wrapper</title>
<ellipse fill="none" stroke="black" cx="76.6932" cy="-90" rx="76.8869" ry="18"/>
<text text-anchor="middle" x="76.6932" y="-86.3" font-family="Times,serif" font-size="14.00">a.c:a_wrapper</text>
</g>
<!-- c.c:main&#45;&gt;a.c:a_wrapper -->
<g id="edge1" class="edge"><title>c.c:main&#45;&gt;a.c:a_wrapper</title>
<path fill="none" stroke="black" d="M125.849,-144.765C117.924,-136.096 108.006,-125.248 99.1574,-115.57"/>
<polygon fill="black" stroke="black" points="101.68,-113.143 92.3494,-108.124 96.514,-117.866 101.68,-113.143"/>
</g>
<!-- b.c:a -->
<g id="node3" class="node"><title>b.c:a</title>
<ellipse fill="none" stroke="black" cx="204.693" cy="-90" rx="33.2948" ry="18"/>
<text text-anchor="middle" x="204.693" y="-86.3" font-family="Times,serif" font-size="14.00">b.c:a</text>
</g>
<!-- c.c:main&#45;&gt;b.c:a -->
<g id="edge2" class="edge"><title>c.c:main&#45;&gt;b.c:a</title>
<path fill="none" stroke="black" d="M155.537,-144.765C163.812,-135.714 174.26,-124.286 183.394,-114.296"/>
<polygon fill="black" stroke="black" points="186.206,-116.408 190.37,-106.666 181.039,-111.684 186.206,-116.408"/>
</g>
<!-- a.c:a -->
<g id="node4" class="node"><title>a.c:a</title>
<ellipse fill="none" stroke="black" cx="76.6932" cy="-18" rx="32.4942" ry="18"/>
<text text-anchor="middle" x="76.6932" y="-14.3" font-family="Times,serif" font-size="14.00">a.c:a</text>
</g>
<!-- a.c:a_wrapper&#45;&gt;a.c:a -->
<g id="edge3" class="edge"><title>a.c:a_wrapper&#45;&gt;a.c:a</title>
<path fill="none" stroke="black" d="M76.6932,-71.6966C76.6932,-63.9827 76.6932,-54.7125 76.6932,-46.1124"/>
<polygon fill="black" stroke="black" points="80.1933,-46.1043 76.6932,-36.1043 73.1933,-46.1044 80.1933,-46.1043"/>
</g>
</g>
</svg>
